<svg id="Layer_1" data-name="Layer 1" xmlns="http://www.w3.org/2000/svg" viewBox="0 0 208.5 216.13"><defs><style>.cls-1{fill:#f1f2f2;}</style></defs><path class="cls-1" d="M136.62,92.66a7.79,7.79,0,0,0-7.09,11l-15.86,15.94a7.57,7.57,0,0,0-3.31-.74,7.41,7.41,0,0,0-3.28.74l-6.48-6.47a7.78,7.78,0,1,0-14.83-3.28,8.2,8.2,0,0,0,.86,3.6l-11,10.82a8,8,0,1,0,3.49,4.06l11.43-11.27a7.88,7.88,0,0,0,3,.57,8.22,8.22,0,0,0,3.32-.74l6.43,6.44a7.58,7.58,0,0,0-.74,3.32,7.79,7.79,0,0,0,15.57,0,7.4,7.4,0,0,0-.74-3.28l15.86-15.94a7.58,7.58,0,0,0,3.32.74,7.77,7.77,0,0,0,0-15.53ZM71.88,133.55a2.46,2.46,0,1,1,2.46-2.46A2.46,2.46,0,0,1,71.88,133.55Zm21.68-21.22A2.46,2.46,0,1,1,96,109.87,2.47,2.47,0,0,1,93.56,112.33Zm16.8,16.79a2.46,2.46,0,1,1,2.45-2.45A2.46,2.46,0,0,1,110.36,129.12Zm26.26-26.22a2.46,2.46,0,1,1,2.46-2.46A2.46,2.46,0,0,1,136.62,102.9Z"/><path class="cls-1" d="M128.47,46.32H52.79V169.81H155.71V73.57Zm1.55,9.1L146.62,72H130V55.42Zm20.37,109.06H58.12V51.65H124.7V77.34h25.69Z"/></svg>