<svg id="Layer_1" data-name="Layer 1" xmlns="http://www.w3.org/2000/svg" viewBox="0 0 208.5 216.13"><defs><style>.cls-1{fill:#f1f2f2;}</style></defs><path class="cls-1" d="M166.64,46.69H41.86a2.53,2.53,0,0,0-2.6,2.44v12.2a2.53,2.53,0,0,0,2.6,2.44h2.5v65.4c0,5.76,5,10.45,11.12,10.45h36L75.86,165.81a2.36,2.36,0,0,0,1,3.32,2.73,2.73,0,0,0,1.26.31,2.62,2.62,0,0,0,2.27-1.25l17-28.57h4.22V167a2.61,2.61,0,0,0,5.2,0V139.62h4.23l17,28.57a2.64,2.64,0,0,0,2.27,1.25,2.74,2.74,0,0,0,1.27-.31,2.37,2.37,0,0,0,1-3.32L117,139.62h36c6.14,0,11.13-4.69,11.13-10.45V63.77h2.49a2.52,2.52,0,0,0,2.6-2.44V49.13a2.52,2.52,0,0,0-2.6-2.44ZM44.46,51.57H164v7.32H44.46ZM159,129.17a5.77,5.77,0,0,1-5.93,5.57H55.48a5.76,5.76,0,0,1-5.92-5.57V63.77H159Zm0,0"/><path class="cls-1" d="M69.17,120.93a2.66,2.66,0,0,0,1.84-.71L88,104.32l12.74,12a2.71,2.71,0,0,0,3.68,0l32.09-30.12V96.44a2.6,2.6,0,0,0,5.2,0V80.27a2.52,2.52,0,0,0-2.6-2.44H121.83a2.44,2.44,0,1,0,0,4.88h11l-30.25,28.4-12.74-12a2.73,2.73,0,0,0-3.68,0L67.34,116.77a2.33,2.33,0,0,0,0,3.45,2.65,2.65,0,0,0,1.83.71Zm0,0"/></svg>